<svg  xmlns="http://www.w3.org/2000/svg" viewBox="0 0 512 512">
<path d="M260.89,447.66c46.67,0.5,101.25-45.33,110.41-90.83c8.4-40.58-5.42-82.55-36.29-110.2c-6.35-5.61-6.96-15.3-1.36-21.67
	c0.74-0.85,1.58-1.6,2.49-2.27c34.5-25.57,54.3-64.58,54.3-107.04c0.01-16.55-3.14-32.93-9.28-48.29
	c-1.92-4.69-1.35-10.02,1.52-14.2c2.84-4.24,7.6-6.79,12.71-6.8c3.12,0.01,6.16,1,8.71,2.8c51.61,36.57,87.79,91,101.56,152.74
	l-38.83,38.81h44.19c0.34,5.43,0.99,10.78,0.99,16.25c-0.03,16.39-1.65,32.73-4.82,48.81l-55.44,55.41h37.62
	c-40.13,88.63-129.55,150.59-233.4,150.59c-4.02,0-8.05-0.09-12.08-0.28c-97.86-4.48-182.47-65.39-221.29-150.31h37.57L5,306.03
	c-2.53-12.23-4.14-24.63-4.81-37.1c-0.36-9.41-0.2-18.83,0.47-28.22H45.1L6.14,201.77c13.7-61.73,49.94-116.13,101.62-152.55
	c2.55-1.83,5.6-2.81,8.73-2.82c5.1,0.03,9.86,2.59,12.71,6.82c2.86,4.18,3.44,9.52,1.52,14.2c-6.12,15.35-9.26,31.73-9.26,48.26
	c0,42.46,19.81,81.49,54.33,107.04c6.85,4.99,8.36,14.58,3.38,21.43c-0.66,0.9-1.41,1.73-2.24,2.47
	c-24.99,22.57-38.75,53.18-38.75,86.19C138.18,388.93,203.51,447.05,260.89,447.66z"/>
<circle cx="256" cy="122.81" r="68.13"/>
</svg>