<?xml version="1.0" encoding="utf-8"?>
<!-- Generator: Adobe Illustrator 25.4.1, SVG Export Plug-In . SVG Version: 6.00 Build 0)  -->
<svg version="1.1" id="Layer_1" xmlns="http://www.w3.org/2000/svg" xmlns:xlink="http://www.w3.org/1999/xlink" x="0px" y="0px"
	 viewBox="0 0 512 512" style="enable-background:new 0 0 512 512;" xml:space="preserve">
<path d="M256,101.4c-86.77,0.74-172.12-9.14-255.89-30.87C141.79,197.27,230.93,343.58,256,513.74h0
	c25.07-170.16,114.21-316.46,255.89-443.22C428.12,92.26,342.77,102.13,256,101.4z M256,446.43
	C236.28,312.6,166.18,197.53,54.74,97.84c65.88,17.1,133.01,24.86,201.26,24.28c68.24,0.58,135.37-7.19,201.26-24.28
	C345.82,197.53,275.72,312.6,256,446.43z"/>
<path d="M256,0.61c-133.39,0-241.52,108.13-241.52,241.52S122.61,483.65,256,483.65s241.52-108.13,241.52-241.52
	S389.39,0.61,256,0.61z M256,462.74c-121.84,0-220.61-98.77-220.61-220.61S134.16,21.52,256,21.52s220.61,98.77,220.61,220.61
	S377.84,462.74,256,462.74z"/>
</svg>