<?xml version="1.0" encoding="utf-8"?>
<!-- Generator: Adobe Illustrator 25.4.1, SVG Export Plug-In . SVG Version: 6.00 Build 0)  -->
<svg version="1.1" id="Layer_2" xmlns="http://www.w3.org/2000/svg" xmlns:xlink="http://www.w3.org/1999/xlink" x="0px" y="0px"
	 viewBox="0 0 76.03 68.84" style="enable-background:new 0 0 76.03 68.84;" xml:space="preserve">
<g>
	<polygon points="59.12,31.42 76.03,31.42 59.62,3 51.16,17.64 	"/>
	<polygon points="45.97,14.64 54.42,0 21.59,0 29.85,14.64 	"/>
	<polygon points="59.12,37.42 50.81,51.81 59.17,66.62 76.03,37.42 	"/>
	<polygon points="30.06,54.2 21.6,68.84 53.54,68.84 45.28,54.2 	"/>
	<polygon points="24.75,17.83 16.4,3.02 0,31.42 16.91,31.42 	"/>
	<polygon points="16.91,37.42 0,37.42 16.41,65.84 24.86,51.2 	"/>
	<path d="M46.27,19.5H29.05l-8.61,14.92l8.61,14.92h17.23l8.61-14.92L46.27,19.5z M37.57,42.02c-4.2,0-7.6-3.4-7.6-7.6
		s3.4-7.6,7.6-7.6s7.6,3.4,7.6,7.6S41.77,42.02,37.57,42.02z"/>
</g>
</svg>