<?xml version="1.0" encoding="utf-8"?>
<!-- Generator: Adobe Illustrator 25.4.1, SVG Export Plug-In . SVG Version: 6.00 Build 0)  -->
<svg version="1.1" id="Layer_1" xmlns="http://www.w3.org/2000/svg" xmlns:xlink="http://www.w3.org/1999/xlink" x="0px" y="0px"
	 viewBox="0 0 512 512" style="enable-background:new 0 0 512 512;" xml:space="preserve">
<path d="M256,54C130.6,54,29,155.6,29,281s101.6,227,227,227s227-101.6,227-227S381.4,54,256,54z M453.71,281
	c0,108.65-87.96,197.71-197.71,197.71c-108.65,0-197.71-87.96-197.71-197.71c0-108.65,87.96-197.71,197.71-197.71
	C364.65,83.29,453.71,171.25,453.71,281z"/>
<path d="M278.12,350.02l69.42-56.15L292.65,367l132.68,20.6l-132.68,16.92l42.87,61.06l-63.75-31.61L256,497.06l-15.78-63.11
	l-55.48,24.47l34.61-53.9l-90.73-20.58L219.35,367l-28.5-48.46l43.03,31.49l13.05-274.34c0,0,6.4-70.82,10.07-70.69
	c3.56,0.12,9.05,71,9.05,71L278.12,350.02z"/>
</svg>